<svg width="136" height="134" viewBox="0 0 136 134" fill="none" xmlns="http://www.w3.org/2000/svg">
<circle cx="50.2863" cy="128.575" r="4.57143" fill="white"/>
<circle cx="85.716" cy="128.575" r="4.57143" fill="white"/>
<circle cx="117.143" cy="110.858" r="3.42857" fill="white"/>
<circle cx="19.9989" cy="110.858" r="3.42857" fill="white"/>
<circle cx="1.71429" cy="79.4291" r="1.71429" fill="white"/>
<circle cx="134.285" cy="79.4291" r="1.71429" fill="white"/>
<circle cx="4.57143" cy="4.57143" r="4.57143" transform="matrix(1 0 0 -1 45.7148 9.14453)" fill="white"/>
<circle cx="4.57143" cy="4.57143" r="4.57143" transform="matrix(1 0 0 -1 81.1445 9.14453)" fill="white"/>
<circle cx="3.42857" cy="3.42857" r="3.42857" transform="matrix(1 0 0 -1 113.715 25.7188)" fill="white"/>
<circle cx="3.42857" cy="3.42857" r="3.42857" transform="matrix(1 0 0 -1 16.5703 25.7188)" fill="white"/>
<circle cx="1.71429" cy="1.71429" r="1.71429" transform="matrix(1 0 0 -1 0 55.4297)" fill="white"/>
<circle cx="1.71429" cy="1.71429" r="1.71429" transform="matrix(1 0 0 -1 132.57 55.4297)" fill="white"/>
</svg>
