<svg width="341" height="127" viewBox="0 0 341 127" fill="none" xmlns="http://www.w3.org/2000/svg">
<path d="M126.173 123.636H99.7886L79.3235 41.4374H78.9852L58.8584 123.636H31.9662L0 2.875H26.5539L45.666 85.0737H46.0042L66.9767 2.875H91.8393L112.474 86.0885H112.812L132.6 2.875H158.647L126.173 123.636Z" fill="white"/>
<path d="M248.554 63.7632C248.554 68.8372 249.118 73.7985 250.245 78.6469C251.486 83.3827 253.402 87.6674 255.996 91.5011C258.589 95.3347 261.972 98.4355 266.144 100.803C270.316 103.058 275.39 104.186 281.366 104.186C287.342 104.186 292.416 103.058 296.588 100.803C300.76 98.4355 304.142 95.3347 306.736 91.5011C309.329 87.6674 311.19 83.3827 312.317 78.6469C313.557 73.7985 314.178 68.8372 314.178 63.7632C314.178 58.4637 313.557 53.3333 312.317 48.3721C311.19 43.4109 309.329 39.0134 306.736 35.1797C304.142 31.2333 300.76 28.1325 296.588 25.8774C292.416 23.5095 287.342 22.3256 281.366 22.3256C275.39 22.3256 270.316 23.5095 266.144 25.8774C261.972 28.1325 258.589 31.2333 255.996 35.1797C253.402 39.0134 251.486 43.4109 250.245 48.3721C249.118 53.3333 248.554 58.4637 248.554 63.7632ZM222 63.7632C222 54.7428 223.353 46.3989 226.059 38.7315C228.765 30.9514 232.655 24.186 237.729 18.4355C242.803 12.685 249.005 8.17477 256.334 4.90486C263.776 1.63496 272.12 0 281.366 0C290.724 0 299.068 1.63496 306.397 4.90486C313.727 8.17477 319.928 12.685 325.002 18.4355C330.076 24.186 333.966 30.9514 336.672 38.7315C339.378 46.3989 340.732 54.7428 340.732 63.7632C340.732 72.5581 339.378 80.7893 336.672 88.4567C333.966 96.0113 330.076 102.607 325.002 108.245C319.928 113.883 313.727 118.337 306.397 121.607C299.068 124.764 290.724 126.342 281.366 126.342C272.12 126.342 263.776 124.764 256.334 121.607C249.005 118.337 242.803 113.883 237.729 108.245C232.655 102.607 228.765 96.0113 226.059 88.4567C223.353 80.7893 222 72.5581 222 63.7632Z" fill="white"/>
<circle cx="189" cy="33" r="10" fill="white"/>
<circle cx="189" cy="93" r="10" fill="white"/>
</svg>
