<?xml version="1.0" encoding="UTF-8"?>
<svg id="Layer_1" xmlns="http://www.w3.org/2000/svg" version="1.1" viewBox="0 0 1265.2 1459">
  <!-- Generator: Adobe Illustrator 30.6.0, SVG Export Plug-In . SVG Version: 2.1.4 Build 109)  -->
  <path d="M947.1,775.3c18.9,26.6,30.5,56,33.3,88.1l.7,22.6c5.1,24.9,16.6,46.7,29.5,68.1,19.8,32.9,26.1,78,17.2,115.4l15.2,17.7c5.9-1.9,11-3.6,17.2-3.6h21.5c7.9,0,15.1.7,23.1-.2,35.7-3.8,63.3-17.7,94.1-22.1,12.3-1.8,31,27.2,18.8,42.9l-26.1,33.8c-15,19.5-44.9,38.3-67.2,50.8l-48.1,27c-28.2,15.8-57.5,28.3-88.5,37.5-7.2-.5-13.5-.1-20.1,1.7-10.8-.2-18.8-8.9-19.3-19.7-1.5-33.1-24.4-46.1-25.9-73.2-.4-7.7,3.8-13.4,11.5-16.1-1.1-8.5-3-16.7-5.7-24.4l-15.5-4.6c-7.4-2.2-9.6-9.7-10.4-16.9l-1-9.3c-.6-5.6-4.4-11.9-8.7-16-19.9-19.4-27.3-36-30.5-64.5-18.9-19-31.4-43.1-34.8-70.1l-5.8-5.2-16.4-16.1c-12,4.3-24.6,5.7-37.5,5l-14-.8-13-1.1-11-1-11.1-.9h-30.9c0,0-12.8,1-12.8,1l-48.1,4.7-9.1.7h-30.9s-8.4-.6-8.4-.6c7.8,13.4,13.1,26.7,16.6,41.7l7.1,30.8c14.7,14.6,29.6,33.3,38,52.1,11.2,25.1,8.7,48.4.7,74.2-3.2,10.2-8.3,18.8-15,27.2-9.8,12.1-22.5,20.1-35.8,28.3-12.6,7.8-27.5,10.9-40.5,17.7-18.6,13.7-36.6,27.9-59.7,34l-23.8,6.3c-27,7.1-54,13.5-79.1,25.7l-18.3,8.8-33.2,16.7c-16.7,8.4-43.4,14.4-60.7,7.7-11.5,3.8-23.6,2.4-31.7-7.6l-11.1-13.7c-3.2-4-10.2-4.1-15.1-6.2l-28.6,17.7c-1.8,17.5-14,24.6-26.7,34.2l-10.3,7.8-20.4,20.5c-17.7,21.1-32,44.3-43.4,69.4s-14.8,38.9-34,39.4c-20.2.5-37.1-15.1-43.9-34.4-4.8-13.5-8-27.1-9.3-41.6v-27.4c0-9.3,2.7-18.3,5.9-26.9l16.3-43.7,17.2-41.8c7.1-17.4,13.8-34.3,23.8-50.2s29.5-41.5,45.2-40.4l12.3.9c6.5.5,12.6-.9,18.5-3.8,2.8-13,8.9-24.1,17.6-34.4l18.3-18.5,31.8-25.2c16-12.7,30.5-25.6,45.2-39.6,19.6-18.7,43.3-33.8,70.8-28.8,6.6,1.2,12.4,7.2,22.8.9v-23.9c-1.8-4-6.6-8.7-9.5-12.1s-6.5-7.6-10.7-10.5l-20-14c-9.4-6.5-16.2-15.7-16.5-27.4l-.5-16.6c0-3-2.2-5.3-5-6-16.4-3.8-20.7-19.6-22.3-35.7l-2.2-21.6-1-11.9v-33.6c0-4.6,1.3-7.1-1.5-11.5s-5.4-13.3-3.9-20.2c7.3-33.1,15.4-65.4,24.5-98.3s23.1-66.4,38.3-98.5l7.8-16.3c2.9-23.2,7.5-45.6,17.1-66.9s29-49.1,32.2-59.5c5.5-17.7,9.1-35.3,12.7-53.5,6.8-34.7,8.8-59.2,32.3-87.8l10-12.1c8.3-10,17.8-18.6,27.5-27.3,28.4-25.3,64.8-45.1,101.5-54.4v-17.1c0-3.3-3.2-5.1-5.7-6.2-2.2-6.1-2.1-13.4-2.4-19.8-1.5-38.2,23-48.7,26.8-71.2,4.7-27.6,17.4-41.5,44.4-47.7,14.6-16.8,34.8-21,56.9-22.4,1.7,1.8,2.1,4.5,1.7,8,13.9.7,25.8,7.1,38.3,13s32.7,10.3,32.1,17.8-5.2,5.7-3.8,6.4l1.8.8,17.2,8.8c15,9.2,25.8,23.1,29.8,40.4s-1,5.3-2.3,7.5c5.5,1.4,10.4,5.8,11.9,11.8s-3.5,4.8-4.8,6.6c-10.3,14.9-6.6,32.4-25,41.2v19c.2,6.9-2.8,12.4-10.9,13.5l.6,8.7c0,1.2.7,3.6,1.2,4.5s3.4,1.2,5,1.3l15.2.9c31.6,3.1,62,8.7,92.9,16.6l30.3-15.3c22.8-11.6,45.5-20.9,70.2-27.8,27-7.6,52.8-15.5,79.2-26l9.1-26.7c2.2-6.4,5.8-13.3,11.1-17.8,6.1-5.2,14.1-10.3,22.2-10.5l24-.6c14.8-.4,43.6-9.1,51.7,16.5,3.2,10.1,0,21.5-8.6,27.7s-18.3,1-21.4,6.8c-5.8,11-13.5,20-21.7,29.5s-24.1,15.4-38.6,15l-18.9,23.5-29.9,29.9c-14.6,14.5-31.4,25.4-48.9,36.1-16.6,10.1-41,11.8-62.2,22.9-6.7,3.5-12.9,7.9-20.6,9.3-15.6,2.7-29.6-5-39-5s-17.7,2.9-26.7,3.6l-16.1,1.2h-23.9c-20.7-1.3-40.4-5-60-11.4l-29-9.4c-11.7,5.8-22.8,8.5-36.7,7.2l.2,6.8c.3,7.7-1.8,15.7-3.9,23.5,7.8-2.3,14.8-4.2,22.7-4.8,17.6-1.5,47,13.3,63.6,23.7s6.2,4.1,10.1,3.2l32.2-7c14.7-3.2,28.6-8.8,43.7-10.1l10.2-.9h18.7s12.3.9,12.3.9l24.8,2.9,25.8-13.4c9.3-4.8,18.2-8.8,28.3-11.8,57-16.8,116.9-39.9,163.4-77.5,9.1-13.4,14.6-28.1,18.1-43.8,1.8-15,25-39,34.9-39.2l10.7-.2,26.1-18.8c5.4-3.9,10.5-5.5,17.1-3.2s16.3-3.7,23.8,0,2,16.1,2.3,16.4l2.4,3c3.1,3.7,3.3,9.7.3,13.7s-5.8,5.8-9.6,8.7l-17.5,13.5c-.5.4-.7,2-.4,1.9l2.4-1.2c5.6-2.8,11.6-5.3,18-5.9s11,3.1,11.6,8.4c1.1,10.2-22.3,23.1-34.8,28.2s-15.1,22-28.7,35.4l-9.1,8.9c-9.1,8.9-20.5,13.7-33.2,16.9-16.6,17.6-34.6,32.5-54.5,46.6-30.3,21.4-60.8,41.1-92.4,60.4-19.5,10.9-38.9,19.8-60.9,24.2-10.1,8.9-22.2,13.5-36,14-21.2,2.7-41.2,7.4-61.7,13.2l-53.8,15.3c-12.7,3.6-25.3,6.2-38.4,7.8s-14.5.3-22,.1l-22.9-.6-11.1-.9-29-3c-3.5,8.8-7.4,16.8-13.8,23.4s-5,6.7-5.9,11.2c-1.8,9.2-10.8,7-14,13.4.2,2.7.3,5.4-1.5,6.9-11.7,10.1-10.8,22.3-17.3,33s-17.5,2-19,7.5c-3.1,11.2,6.9,18.5-1.3,22.2s-4,3.5-4.5,5.3l-5,20.9c-1.7,7.1-3.4,13-9.6,17.7s-9.7,7.4-11.8,12.9.5,8.9-1.3,11.6c-6.5,10-18,13.1-18,21.1v16.2c-.1.4-.8,2.1-1,2.5-1.4,2.6,5.7-3.9,9.5-3.9s5.8,2.5,8,4.8l8.7,8.9c10.5-6.3,20.5-12.9,32.9-13.3,8-.2,16.1,3.2,23.9,4.4l16.7-5.7c8.7-1.7,16.7-3.7,24.6-7.4,9.1-4.3,18.8-4.8,27.9-.3,3.5-2.6,9-6,13-4.5,15.5,5.6,16.2-14.4,44.8-9.4l29.2,5.1c29.2-12.2,61.7-6.9,87,11.9l21.4-4.9c3.4-.8,8.7.3,10.3,4s2.4,10.2,2.3,15.5c12.6,3.9,17.7,15.9,15.2,28.3l-1.5,11.9c3.5,16.3,10.8,30.3,20.6,44.1Z"/>
</svg>