<?xml version="1.0" encoding="UTF-8"?>
<svg id="Layer_1" xmlns="http://www.w3.org/2000/svg" version="1.1" viewBox="0 0 273.8 479.1">
  <!-- Generator: Adobe Illustrator 30.6.0, SVG Export Plug-In . SVG Version: 2.1.4 Build 109)  -->
  <path d="M55.3,478.9h-4.3l-2.1-.3-18.5-3.3c-2.2-.5-3.9-1.5-5.9-2.7s-3-1-3-2.5c-.1-3.9,1.2-7.7,3.8-10.7s3.5-2.3,5.3-3.2l11.3-5.4,5.5-3.4c1.4-.9,3.1-1.5,4.3-2.5,1.3-3.6,3.1-7.1,6.6-8.7s3-1.6,4.1-3.3c2.3-3.4,1.6-4.7,5.1-5.3,0-4,3.1-5.8,4-9.2l-5.7-6.6c-3.8-4.4-7.5-9-9.8-14.4s-1.2-3.2-3-4.3c-4.9-3.1-8.2-7.6-10.5-12.8l-4.4-10.1-4.3-8.9c-.9-1.9-1.7-3.3-2.3-5.4-1.2-4.3-3.8-8.1-6.3-11.9l-4.4-6.7-6.5-9.7c-1.2-1.8-2-3.3-2.9-5.3l-3.2-7.3c-1-2.2-2.1-3.8-2.9-6.1-1.4-3.8-3.4-7.4-5.3-10.8l.2-4.2.5-7.1,1.2-10.7c.5-4.7,15.3-17.4,21.2-21.4h21.7c.6,0,2.2-.5,2.5-.7,1.2-2.6-1.4-4.2-1.9-6.1-1.4-5.1-.6-10.4,0-15.6l1.4-2.8,1.6-4.8c1.6-4.9,2.2-10.1,3.6-15.1l1.3-4.6c2.2-7.7,4.3-15.1,7.5-22.4,3.2-7.3,3.7-9.5,5.5-14.5s1.6-14.6,3.7-20.2l6.6-17.7c2.9-7.9,6.7-15,10.6-22.6,3.9-1.7,7.6-3.6,11.8-4.3s4.5-.2,6.3-1.4,4.3-2.5,6.9-2.9l14.8-2.2c-3.4-3.6-5.6-6.5-7.1-10.9s-2-4.7-3.9-5.7c-3.1-1.4-6.4-2.8-7.3-6.5l-.7-7.9c-1.1-3.8-1.8-7.5-.6-11.4,1.3-1.9,1.4-4.5,0-6.6-1-7.8-.8-16.1,3.1-23.1s2.3-4.3,3.7-6c4.5-5.5,9.8-10.1,15.3-14.5,5.5-4.4,3.6-2,5.4-2.8,4.9-2.4,11.1-1.3,16.3.1s4.4.6,6.1,2.6,3.2,2.4,4.8,3.6c8,5.7,13.3,10.1,16.3,19.7l2.1,6.5c1.8,5.5-.8,10.8,3.2,14.3s2.5,3.3,2.5,5.6v15.8l-5.9,4.5c.3,3.7.8,7.4,1.6,11.2l1.5,2.7c.6,2.7,2.4,4.2,4.8,5.6l4.7,2.7c2.1-1.4,3.8-1.3,5.9-.7,5.3,1.6,10.5,3.2,16,4.4l17.5,3.8c7.1,1.5,12.9,5.4,18.1,10.4s3.5,2.5,5,3.3c.4,1.9.8,3.8,1.5,5.4l2.4,5.4c1,2.3,2,4.4,2.6,6.8s1.3,4.8,2.4,7l9.4,19.1c.3.5.1,2.1-.3,2.5s-1.5.8-2.2,1c-.5,4.2-3.2,5.1-3.6,10.5l-1.6,25.6-2.7,35.9c-.7,9.8-1.5,19.1-1.8,28.9,0,2.3-.4,4.2-1.9,6-.6,5.1-.6,10.2,0,15.4,1.4,1.6,1.9,3.4,1.9,5.5.5,7,1.4,15.4,4.6,21.3l-1.1,2.3c-.2,5.1-.8,11.7,2.4,14.9-2,3-3.4,7.4-1.8,10.5l1.2,2.4c.3,1.8.1,4.7-.7,6.4-1.4,3-1.6,5.7-2.4,9s-1.7,4.5-2.6,6.5-2.7,4.1-3,6.7-2.2,5.1-3.2,7.8l-5.4,13.4c-3.1,7.9-8.4,9.5-9.2,13.3s-1.3,5-2.3,7.6l-1.8,4.7c-.6,1.4-1.7,2.9-1.7,4.6l-.7,24.7c-4.5,7-8.3,12-16.7,13.7l-12,2.4c-7.3,1.5-12.4-2.5-16.1-8.7s2.8-6.4-1-8.4l-8.3-4.5c-3.5-1.9-1.6-5.9-5.5-10.2l-8.2-9,.3-28.3c.1-10.3,3.7-11.9,4.4-16.6l1.5-10.3c-1,.7-1.7,1.4-2.1,2.1-2.7,6.1-5.9,11.6-10,16.8s-6.2,3.8-8.9,1.5l-2.9,2.6c-1.3,1.2-3.5,1.5-5.3,1s-2.4-1.8-3.6-3.3c-1.2,1.9-2.9,3-5,2.3-4.5-1.5-3.5-5.4-7.4-6.6s-4.4-5.2-5.6-8.9l-3.3-10.3c-3.4-10.3-1.4-17.8-1.6-18.1s-1-.7-1.6-.9c-2.4,2-5.6,2.1-7.9.2-4.4-1.1-8.4-2.8-12.3-5.1-5-2.6-9.5-5.3-14-8.6-.4-.2-1.7-.6-1.7-.1v1.7c1.9,4,3.4,7.8,4,12.2.6,2.1,1.6,3.9,3,5.6s2,3.7,2.8,5.8,2.7,3.5,4,5.3.3,2.8.9,3.9l1.8,3.6c.7,1.5,1.4,2.8,2.8,3.6,4,2.3,2.5,6.1,4.8,7.5s5.1,3.3,7.4,5.5c3.2,3.1.8,6.3,5.1,10.3-1.2,1.8-1.6,4.1-.6,6.1s1.7,5.3,2,8.3l.7,5.9c2.1,1.3,3.6,2.6,3.2,5.1l-.8,5.4-.6,20.3-9.5,8.3c-3.6,3.1-9.5,3.4-11.9-.7-3.8-.3-5.9,2.9-8.5,5-7.8,6.2-16.9,10.1-26.1,13.9-2.1.9-3.9,1.6-6.1,2s-1.5.8-1.7,1.2l-.4-.2h0ZM133.4,283.9c2.5.6,2.7-3.2,1.9-7.2-1.3-5.9-2.4-11.5-3-17.5l-2.1-19.5c-.6-5.9-2.1-11.1-4.4-16.6l-7.9-18.9c-2.9-6.1-5.4-12-7.7-18.2s-2.6-6.8-4.5-10.3c-2.6,4.3-4.5,8.4-6.1,13.1l-7.1,21.4c-2,6-4.9,11.4-7.4,17.2s-1.6,9.1,1.9,12.8c5.3,5.7,9.4,11.9,13.1,18.8s11.4,19.8,21.3,22.1l12,2.8h0ZM53.5,257.2c-1.3-1.7-2.8-3-4.8-3.4.7,2.3,2.6,3.2,4.8,3.4Z"/>
</svg>