<?xml version="1.0" encoding="UTF-8"?>
<svg id="Layer_1" xmlns="http://www.w3.org/2000/svg" version="1.1" viewBox="0 0 226.9 725">
  <!-- Generator: Adobe Illustrator 30.6.0, SVG Export Plug-In . SVG Version: 2.1.4 Build 109)  -->
  <path d="M75.5,698.4c-9.6,8.4-14.1,9.5-26.6,9l-6.6-3.6c-2.3-5.6-5.3-12.6-4.2-18.9,2.4-14,8.7-26.1,16.4-37.3l.9-15.4c-4.7-1.6-4.4-4.6-5.9-8.3l-8.6-21.5-.5-9.4-12.8-44.2-5.7-25.9,2.3-6.3-6.9-5.6,3.6-6.1c-4.1-7,2.1-8.5,3.6-15.4-7-1.6-6.1-11.1-1.3-18.4l-1.2-9.5,1-30.3,2.6-19.7c.5-3.6-4.1-8.7-4.2-12.1l-.3-10.1c-3.8-4-6.7-8.2-9-13.4l-5.3-3.8-6.4-18.5c-3.3-9.4,5.8-10,2.5-19.8,5.1-7.8,7.2-16.4.3-22.1-2.1-6.6-2.1-17.7,1.1-18.6s5.4-.9,6.7-4.6-1.1-4-3.1-6.5c-2.4-6.8,4.8-10.8,2.4-18s-.7-8,0-12.3l1.5-9-5.4-9.4c-.5-3,2.5-8.6,3.8-11.7-.5-11.8-3.2-23-1.9-34.8s4.7-20.5,6-31l2-16.2c.3-2.1,2.3-6.5,3.6-8.2,13.7-18.2,31.5-22.4,51.7-30-2.7-1.5-5.3-3.9-5.3-6.3-.5-16.7-8.3-24.5-4.4-39.8s.9-10.1,1.6-15.5c1.3-10.2,10.7-19.2,7.6-26.4s-1.3-4.5-.5-6.9,3.3-3.9,5.8-4.7c7.3-2.5,14.2-1.2,21.6-.5,9,.9,17.4,1.7,24.8,7.6l1.7,4.3c13.3,14.9,9.1,22.1,7.3,39.3,3.7,3.1,3.2,6.3,1.8,10.4s-3.3,10-9.4,11.6l-2.8,12.6c4.4,14.7,8.6,11.6,14.1,13.8,17.4,6.8,34.3,13.2,50.3,23l11.4,12.2c4.4,4.7,3.9,13,6.5,18.6s2.4,6.7,2.7,10.3c1.1,17.3,3.9,33.5,9.4,50,.3,13.3,4.3,25.2,9.7,36.9,2.7,9.2,1.1,18.8-6.8,23.9,1.3,8.3-.2,15.4-1.7,23.3s-1.7,10.6-7.7,13.9,2.9,8.2-2.5,19.3-5.6,5.3-10.3,7.8c-7.1,9.8-1.1,16-2.2,18.3l-4.3,8.6-4.6,1.7c-1.1,5.7-1.8,12-3.8,17.3s-4.7,13.6-5.5,21.4l-12.4,9.7c-2.6,7.1-7.4,14.6-8.5,22-1.7,11.4-3.2,21.4-7.3,32.2s.1,13.3-1.1,19.1-3.5,12.7-4,19.7,2.7,10.7,3,15l-2.1,24.9-2,44-7.7,24c3.6,8.8,2.6,20.1.2,29.2-3.9,2-4.2,5.2-2,8.2l-6.9,29.5,5.2,20.4c.8,3.2,3.3,6,1.6,9.7-3,6.6-13.7,8.8-22.7,9.9s-15.8,1.2-23.2-3c-.4-16.4,2.7-31.9,6.9-47.9l-4.5-5.4c2.5-3.1,3.4-7.4.8-10.6l-7.3,7.5c.1,7.4.4,15.7-2,23l-4.7,10.2ZM88.8,623.8l4.6,15.2,6.4-4.6-4.9-14.8c-1.2-3.6-2.4-9.9-1.8-13.8,2.3-16.4,6-31.7,7.1-48.1l1.2-18.3c-3.6-5.8-6.2-11.5-4.5-18.8l-4.6-10c-2.6-5.6,3-14.4,1.4-25.4s.5-29.9,2.5-45.6c-2.4,1.3-3.2,3.7-4.2,6.2-4.1,10.4-7.5,20.5-7.9,31.8l-5.6,7.4-.9,11.5c-.2,2.5,2.4,4.4-1.2,7s-3.5,6.3-4.8,8.9-2.3,4-1.7,7.3l7.1,43.1c.8,4.6.5,10,.4,14.7,1.9,2.3,7.3,6.1,5.8,9.6l-3.1,7.2c8.7,5.6,12,19.1,8.9,29.5Z"/>
</svg>