<?xml version="1.0" encoding="UTF-8"?>
<svg id="Layer_1" xmlns="http://www.w3.org/2000/svg" version="1.1" viewBox="0 0 163.1 500.1">
  <!-- Generator: Adobe Illustrator 30.6.0, SVG Export Plug-In . SVG Version: 2.1.4 Build 109)  -->
  <path d="M111.2.2c11.4,4.6,19.6,11.2,19.6,25v9.9c0,6-1.4,10.7-4.5,15.7l-3.1,4.9c2.6,3.9-1.5,7.6-.6,12.3.9,4.7,7,9.2,11.8,11.5s9.4,4.4,15.1,6.2c12.5,3.9,10.5,17.3,11.3,26.5.5,5.5,2,11.3,2.1,16.6l.2,11.1c0,4.1,0,7.6-1.2,11.6l-4.8,17.1c-1.4,4.9-.5,10.8-3.7,15.5h-8.5c0,.1-5.6.5-5.6.5-4.2,7.5-1.3,13.8,2.5,23l2.7,6.4,3.4,6.4c-.5,6.3,0,12.3.4,18.9.4,8.6-1,17.9-2.6,26.2l-2.7,14.6-2,18.1-1.8,15-4.3,26.4-2.5,22.6c-.8,7.7,1,13.9,4.8,20.5l.5,10.5c.4,8.1.9,15.1,0,23.1-1.5,14.6,2.5,27.9-.2,42.5l-3.5,5.1,3.9-.8c.6-.1,0,2.4.3,3.1,8.7,14.7,21.4,16.1,17.5,25.3l-6.4,3.5c-6.1,0-12.9.9-18.7-.4s-14.1-8.7-21.4-12.1l-12.2-5.7c-4.6-2.2-2.4-7.3-2.4-10.6v-8.3c0-15.3-.6-30.2.2-45.4l2.5-22.5,3-18.3c.4-2.6.6-5.1-.4-7.4,2.2-5.4,1.5-9.5-.4-15.1-1.7-5.1-1.5-11.8-2.8-17.2-2.5-10.1-3.4-19.4-3.2-30l-.8-8.7c-.5-5.5.1-10.3-4.4-15.1-4,7.1-6.2,13.9-9,20.8s-5.5,14.4-8,21.9l-7.8,23-5.1,14.9-3.4,15.4-.8,19.7c-.3,6.5,0,12.6-.4,19l-.4,9.3-1.2,11.8-3.5,26.1c-3,3.9-2.6,8.9.4,12.5.8,8.6-4.3,15.1-12.4,17.9l-10.9,6.5-9.4,3.1H7l-2.2-1.5c-1.4-.5-4.1-2.4-4.6-3.8-.9-2.5,1.5-13,5.4-16.7l5.5-5.2-.6-7.6c-7.9-6.2-10.2-15-8.2-24.4l8-37,3.6-15.4c1.3-5.5,4.1-9.4,7.8-13.5l3.7-11.3c1.7-5.2,5.8-11.4,5.4-17.7l-1.4-23,.9-20.9,1.6-14.6,2.5-19.4,1-11c-1.7-8.1-2.7-16-1.3-24.2,4.2-3,5.2-7.1,4.2-12,1.3-3.6,3.2-8.3,3.9-11.6v-9.3c0-2.7.2-5.7,1.3-7.8l3.1-6.3-10,.9c-2.9-3.5-5.6-8.8-6.1-13.6l-1.9-18.1c-.2-2.4,3.4-6.6-2.2-7.8.3-6.6-.6-14.1.5-20.9l4.2-25.7,5.6-10.7c7.4-14,21.8-18,37.1-20.5l6.2-5.7c.3-3.7,2.2-6.2,5.6-6.7,2.9-5.3-.5-11.6-4.8-15.3l-2.5-6.8-1.6-3.3c-.4-.8,2.1-2.7,2.2-3.6l1.5-11.8c5.4-8,12.3-14.1,21.1-16.3h9.5l.2.2Z"/>
</svg>