<?xml version="1.0" encoding="UTF-8"?>
<svg id="Layer_1" xmlns="http://www.w3.org/2000/svg" version="1.1" viewBox="0 0 1726 2489.4">
  <!-- Generator: Adobe Illustrator 30.6.0, SVG Export Plug-In . SVG Version: 2.1.4 Build 109)  -->
  <path d="M1725.7,43.3l.3,48.2c-30.6,37.4-64.8,71.5-98.9,106.7l-31.8,36.7c-38.8,44.9-75.7,89.9-118.3,131.3s-15.3,16.1-13.4,29.3c2.1,14.6-4.9,23.5-13.5,33.9-7.3,8.9-12.8,19.1-26.9,19.1l-6.9,9.3c-9.9,1.6-21.7,3.8-30,7.4l-30.8,34-6,11.7-30.6,31.4c-9.6,9.8-18.2,17.1-24.5,30.2-1.8,3.7-7,9.9-10.2,13.1-10.5,10.5-15.4,22-21.3,35.3-5.5,12.3-19.6,19.4-28.3,29.1-10.4,11.5-17.8,24.9-29.6,34.6s-11.6,6.4-14.7,11.1c-6.8,10.2-13.3,19.9-22.9,27.4l-58.1,45.8-20.2,17.9-8,24.8-3.9,24.7c.4,6.1,6.6,17.2,3.7,24-2.1,5-5.2,11.3-4.7,15.3l3.2,22.5-7.8,18.2c-2.2,5.1,3.3,15.6,3.9,21.4,2.8,25.5,1.7,50.3-5.2,74.9-1.3,4.5-6.7,11.3-6.7,16.8,0,19.7-7.1,36.2-21.6,48.6-5.3,4.5-7,12.1-7.3,19.3-.5,10-4,22-1.5,32.2l40.2,165.6c3.3,13.7,5.6,28,4.3,42.1-1.1,11.4,0,20.1,2.6,31.3,3,13.1,2.1,30.7,10,42.2,9.1,13.2,11.9,24.5,12.6,40.7l1.3,28c1.1,24.9,24.7,31.8,25.3,43.2.2,3.9-3.1,11.6-5.8,14.3l-13.4,13.5c-2.6,2.6-5.3,6.2-4.6,10s6.2,4.7,9.7,5.2l27.3,4.2,4.2,31.8c5.5,6.3,5,10,4.9,18l-.8,41.8-1.2,19.7c-.4,6.3-3.3,14.7,1.1,20.3,8.3,10.7,1.8,17.8-1.8,27.4-19.7,52.9-50.6,103.6-93.3,141l-16.4,17.5c-28.5,37.9-59.5,71.5-92,105.9l-46.8,49.5-23,21.9c2.7,1,6.5,2.4,5.7,3.4l-5.3,7.1,53.8,9.9,50.7,6.8,44.4,4.6,86.6,9c10.9,1.1,17.3,2.9,20.6,13l45.5,4.8,38.2,2.5,25.2-.9c26.8-9.3,54-15.7,82.2-8.6l22.7,5.7c10.1,2.6,16.5,5.1,27.4,1.6,21.3-6.8,44.6-9,66-1.3l19.2,6.9,1.7,22.6.3,64.1c0,2.6-4.8,6.5-7.8,8.3l8.9,35.6c5.8,23.3,10.8,46.2,10.7,70.6l-.3,75.2-5,69.4c-.5,6.3-3.1,11.8-7.4,14.7h-28c-7.9-6.3-14.5-16.5-16-28.1-5.7-42.1-23.2-81.6-59.2-109.8l-7.9,82.8c-1,10.1-6.5,20.1-11,28.6-7.3,9.1-16.8,12.3-28.1,9.9-9.5-2.1-16.3-11.5-18.2-23.1l-7.9-48c-12-35.3-34.5-65.4-62.6-89.1l-24.1-20.3c-7.7-6.5-20.9-7.4-30.9-6.7l-78.2,5.7-105.3,12-170.4,24.6c-9.3,1.3-16.9-3.6-23.3-9.6l-52.7,9.2-48.4,7.3c-23.9,3.6-48-1-71-8-37.9-11.5-44.3-37.5-62.6-43.9-20.9-7.2-42.8-18.9-54.2-39.2-19.5-34.7-16.4-87-4.2-126.8,31.8-103.6,72.1-214.4,125.1-308.7l57.5-90.1c2.5-7.9,5.8-14.7,10.4-21.9l29.4-46.5,11.5-20.7c2.1-5,4.3-15.9,5.3-21.4-2.5-12.3-4-23.5-3.9-36.2v-26.4c0-7.3-.4-19.9,2.7-25.7,4.8-9.1,5.8-14.2,1.7-23.6s-1.2-17.4-10-17.6l-20.8-.3-50.4,13.8-50.2,19.9c-17.2,6.8-34.1,16.7-52.7,18.4l-56.7,5.3c-16.4-19.5-27.7-40.3-37.3-63.2-4.6-10.8-11-18.8-18.5-27.7-14.8-17.7-26.2-48.6-19-67.2,8.7-22.6,25.1-39.7,41.4-56.6,9.5-9.9,20.8-17.9,34.1-21.6s20.8-11.5,29.8-20.7c10.2-10.4,22.6-18.9,25.5-34.4s2-35.8-7.6-51.7-15-27.2-25.7-38l-24-24.2-39.6-32.4c-41.5-33.9-31-108.7-3.7-156.4,6.5-24.3,13.4-47.8,22.3-71.6l15.6-37.1c-6.8-6.6-13.5-15.9-21.2-19.1-12.7-5.3-22.9-10.4-33.6-19.2l-35.1-28.7-26.8-23.3c-11.4-10-23.7-17.2-39.3-20.8l-7.7-18.3-30.2-24.1c-10.2-.1-18.1-4-23.5-12.3-10.1-2.5-20.8-6.5-28.3-13l-10-24.6c-4.4,7.8,2.9,26.4-6,24.3-13.1-3.1-27.2-6.5-36.4-16s-4.8-23.6-5.6-33.8c-4.8-8.5-7-16-6.4-26.6-40.7-33.4-77.8-69.1-115.7-105.6l-59.6-52.8c-3.1-30.3,17.1-47.8-4.4-63.3v-10.2s10.3-18,10.3-18c.9-9.3,7.9-14.6,18.2-13.6.9-10,6.3-19.2,18-16.2,3.5-1.6,7.3-4.2,10.6-6.8,3.8-9.4,12.1-10.8,20.4-7,7.9-7.1,15.3-11.3,26.5-7.4,1.9,16.2-8.6,28.1,4.2,44.5s3.9,20.6-3.1,29.4l-19.6,24.7c-2.1,2.7-5.6,6.8-5.8,9.5s3.4,7.4,6,9.4c28.5,21.7,55.2,43.7,86.3,61.7l58.1,33.7,25.8-8c9.9-3.1,17.2,3,24,8.5,17.7,14.2,33.6,28.5,46.8,47.5,11.5,4,18.7,11.8,21.4,23.9,11.7,11.5,26.9,17.6,39.8,26.8,11.2,8,19.9,17.6,33,22.7,4.4,5.7,10.5,15.4,16.1,19.3l18.1,12.5,70.7,39c2.7,9.9,9.1,16.2,19.5,16.8,15.9,3.7,19.7,15.6,34,16.2,7.3,6.1,16.7,10.2,25.7,5.9,17-8.1,34.1-11.9,54.1-14.6-41.7-51-45.4-83.8-34.4-145.1,3.4-18.7,8.1-37.1,14.9-54.6-5.2-5.8-8.2-12.9-5.5-20.2l6.7-18.4c-6.6,5-13.5,8.5-18.6,8.4l3.5-19.4,9.8-14.2-2.7-4.2,10.1-11.6c10.8-12.4,22.5-19.8,37.7-25.1l17.8-13.3c-18.1.9-32.8,10.1-46.4,21.2l-20.3,16.7,12.3-21.2-14.2,10.6c9.7-20.7,31.7-24.1,39.6-32.1l19.5-19.6-23.1-1.2c5.6-1.4,11.5-2.1,17.4-1.8s14.3-.8,22-1.9c22.4-3.2,45.2,4.6,66.3,11,8.7-6.7,17.8-11.9,27.7-15.4l36.7-12.9,22.4-6c38.1-10.2,80.3-10.9,119.2-5.4,8.3,1.2,17.6,5.7,24.9,8.6l-25.6-2.4,9.9,9.5c-8.9-5.3-15.5-.5-21.2,2.8-20.7-.9-40.1-5.6-60.3-4.2,16.1,6.5,30.8,9.7,44.8,17.3,9.9,5.4,18.2,13.8,27.6,20.2,17.2,11.7,28,29.3,40.9,45.5,5,6.3,12.7,11.6,16.5,19.2l16,32.2c3.4,6.8,5.5,12.6,6.7,20.3l-19.7-18,6.1,58.5c2.9,27.5,3,54.2,2.5,82.4,7.2-7.7,17-14.5,23.3-22.3,10-12.3,18.5-25.1,34.1-30,16.2-5.1,21.8-18.5,28.1-32.5,7.1-15.8,19.6-29.6,30.5-42.9,9-11,21.3-17.8,31.4-26.8l42.2-37.8,30.8-29,34.4-31.8c1.3-11.8,6-20.1,12.6-29.5l57.6-60.4c5,1.5,8,5,10.1,9.6l15.2.4,83.2-71.2,64.8-59.2c19.3-17.6,36.7-34.8,51.8-56.2s1.5-17.1-9.1-43.8c-5.3-13.3-.5-20.3,7.5-29.9,10.8-13,22.4-26.9,41.2-28.3l13.2.8c8.5-1.4,15.3-.1,22.4,4.6,9-2.9,18.2-1.3,25.1,5,10.6-.1,18.8,5.1,20.5,16.1,2.9,3.9,8.1,12.2,8.2,16.8ZM898.2,352.9c-20-6.3-36.6-2.8-52.7,4.2,19.2.7,36.4-1.1,52.7-4.2ZM721.9,376.3c-8.2-5.3-15.9-7.9-23.8-8.1-9-.2-17.4,7-20.7,14.7,15.6-6.1,29.2-6.7,44.5-6.6ZM1035.6,571.1l.8-53.8-14.7-55.3-15.2-25.4-32.3-23.9,26.9,33.6c10.5,13.2,18.9,26.7,19.6,44.4,6.7,21.4,10.5,43.3,12.1,65.7l2.8,14.7ZM642,500.2c7.4-10,10.4-20.5,7.8-33.5-7,10.1-11.7,20.6-7.8,33.5ZM1037.8,641.9c7.5-20.1,6.4-37.3,3.8-56.7l.4-6.7c0-.7-1.1-.5-3.2-.2l-6,50c-.6,5.2.8,10.7,5,13.6ZM635.4,649.3l2-68.5-9.7,28.9c1.3,14.2,2.9,27.3,7.7,39.6ZM675.6,699.1c-5.9-12.6-10.4-23.2-11.9-35.4l-4.7-37.4c-6.7,26.6-4.4,63.1,16.6,72.9Z"/>
</svg>