<?xml version="1.0" encoding="UTF-8"?>
<svg id="Layer_1" xmlns="http://www.w3.org/2000/svg" version="1.1" viewBox="0 0 527.4 2061.6">
  <!-- Generator: Adobe Illustrator 30.6.0, SVG Export Plug-In . SVG Version: 2.1.4 Build 109)  -->
  <path d="M308.8,2061.1c-7.8.8-14.5.4-21.7,0s-19.2.2-28.7-1.9c-13.3-12.3-9.7-21.5-4.5-36.4l4.2-19.4,6-10.1,4-10,2.3-11,2-10.3c.7-3.4.3-5.7-2.4-8.2l-.2-8.8c0-.9-.4-3.1-1.1-3.2-5-1.2-21.7,4.9-33.8,1.8l-13.8-3.5c-1.8-.5-4.7-2.8-5.4-4.4s.5-5.1.9-6.9c2.2-9,7.1-14,15.1-18l7.9-3.9,11.1-6.2c11.2-2,22.8-6.8,27.7-17.8l4-8.9c.8-5.5,2-9.8,3.8-14.8l5.8-15.6c1.3-3.4.8-5.2-1.8-8.6,0-3.2,3.3-8,5.2-11,1.8-12.1,2.3-23.4,1.1-35.8l-1.9-19.5-2.2-14-6.7-54.7c-.3-2.3.2-6.1-1.3-7.5l-16.2-2.3-8.4-1.4c-6.6-1.1-10.4-4.4-15-8.5-3.4-2.9-5.5-5.1-6.3-10.1l-1.6-10-3.4-20.3-17.5-1.9c-5.2-.6-8.1-3.9-10.1-8.2s-4.1-8.3-4.2-12.9l-.6-38.2-6.9-44.8-4.9-31.6-2.9-21.3-6.1-37.5-6.9-42.7-8.8-52.5-5.3-35.5-1.6-11.6-3.6-25.9-4-29.4-1.5-12.5-1.5-15.9-2.9-25.3-2.1-18.4-7-39.5-1.8-13.3-2.2-20.1-1.1-12.1-.9-11.1-.9-17.8-.2-43.8,1.5-11.7.6-36.3,1-15.1c.8-12.1.4-22.8-.8-34.7v-38c-.1,0,2.5-21.6,2.5-21.6,1.7-14.3,4.7-27.9,8.9-41.6l7.5-24.1c2.8-9,7.2-12,3.4-14.1l-12-6.9c-2.4-3.9.7-8.9.2-12.7l-2.9-24.3-.9-12.2-.6-17.3c-7.2,0-13.3,1.8-20.3,2.8l-11.9,1.6c-8.9,1.2-17.4.7-26.3,0l-13.2-1-16.1-1.5c-10.8-1-20.6-3.2-31.6-3-8.2.1-16.1-6.5-16.6-15.5-1.8-31.2-1.2-38.4,15.4-65.8l17.4-28.4,5.3-8.8c2.4-3.9,5.3-6.5,2.6-12.1l9-5.3,5.6-8.9,11.7-15.9,7.3-12,6.9-10.1c9.1-13.4,18-26.5,24.5-41.3l3.7-8.5,10.7-20.7,6.3-10.8c3-5.2,4.7-10,9-14.6s4.8-9.9,10.6-17.6l13.6-17.9c11.7-15.4,26.7-12.3,32.3-27.5,1.9-5.1,6.6-7.1,11.8-7.3l13.7-12.8c12.5-11.7,5.3-17.6,5.3-26.1s-.6-13.5-4.7-20.2c-2.2-3.6-1.3-10.2-2-14.3l-4.5-26.2-1.4-13.8-3.8-4.4.2-16.6.8-11.4,2.9-26.3-1.5-17.7c-1.7-19.9-15.8-21.2-10.4-25.8,5.2-4.4,7.7-11.2,9.4-17.8s6.6-12.2,9.9-18.4l3.6-6.6c2-3.7,3.5-9.9,3.8-13.8-1.2-10,3.2-21.2,10.7-28.6s10.8-13.2,17.9-17.3c6.1-3.5,10.9-6.7,15.8-11.9,3.9-4.1,10.1-6.7,15.5-8.5,5.1-1.8,7.4-4.9,11.1-8.5,5.4-5.2,15.7-9.7,23.4-8.3l26.2,4.6c9.9,1.7,20.4,3.7,29.8,7.6,15.8,6.5,30.1,17.5,41.4,30.2l9.5,15.7,9.3,16.1,6.9,12.4,9.5,17c1.9,3.5,4.1,7.1,4.9,11,1.1,5.5,4.2,9.3,6.2,14.2l13.6,33c2.1,5.2,2.6,10.4.3,15.3-1.2-.9-5.2-1-5.3.3,0,6.3.8,14.7,3.4,20.3l5.7,11.9,11,19.1,5.1,17.2c-3.4,3.1-4.4,7-1,10.7l-4.8,6.9c-3.7,5.3-4.5,10.7-3.6,17.1l1.2,9c.1.8-1.1,2.9-1.9,2.9-4.2-.3-4.4-2.4-8.1-1.5s-2.5,3.3-1.8,4.2l4,5h-3.6c-3.3.1-2.1,4.3.7,10.2,2.7,5.6-1.8,9.4-1.9,9.4l-3-1.9c-.3.2-1,2.8-.5,3.4l2.7,2.8,4.5,9h-6.4c-2.2,0-3.2-5.8-7.4-7s-4,2.5-4.1,3.8l-1.1,13.7c5.1,2.9,11.2-1.3,15.6.2l15,5.3,11.3,5.1c3.6,1.6,7.9,8.1,8.7,11.8,1.6,7.6,3.1,13.6,6.9,20.1s2.8,7.5,3.8,11.4c3,12.4,5.8,26.6,3.9,39.1-1.8,12.2-2.8,23.3-3,35.7l-2.7,21.1-.8,9.4-1,12-1,16.3c-.3,5.6-1.5,10.2-2.7,15.7-1.9,8.7.7,18.6-1,27.5l-3,16.2-6.8,27.6-4.2,16.1-3.9,15.2-6.6,28.2-12.3,44.5-4.4,18.9c-1.9,8-3.3,16.2-6.6,23.6-2.7,5.9-8.5,7.2-14.1,8.3l-24.5,4.8c-3.7.7-7.2,2.8-8.4,5.4-2.2,4.6-.2,7.2,1.2,11.5l3.8,12.3c3.7,11.9,9,21.4,16.9,31l8.6,14.6,5.5,9.7c3.2,5.7,4.6,10.8,6.3,17.2l4.1,14.9,7.8,24.6,3.3,12.9,4.1,20.2,1.6,9.6,1.5,8.6v46.6c0,0-.8,9.1-.8,9.1l-1.7,15.6-.9,17.5c-1.6,6.9-2.6,12.6-2.9,19.7l-.7,16.1-.7,15.1-1.1,23.3-1,16.2-.9,13.4-.8,35.9-1.1,31.3-1,32.6-1,27.3-1.1,19.2-1,28.4-.9,41.6-1.2,27.2-.6,31.1-1.8,12.1-.6,65.4-.3,49.2,1.2,19,2,19.1,4.6,39.9c.2,1.7-1.9,4.2-3.2,4.5l-15.1,3.6.3,44.5.8,12.2,2,22.3,1.9,18.3,4.7,36.5c8.4,2,9.4,12.6,6.2,17.7s-2,10.5,2.7,14.5c3.7,7.9,2.7,13.6,6.9,22.3,7.6,15.4,2.9,21.9,4.6,29.6,2.6,11.6,1.2,23.2-4.9,33.4l3.2,9.2c.9,2.5.8,6.6-.5,8.8s-4.7,4.2-7.2,4.5l-21,2.3-16.7.7-12.6.5c-2.2,0-4-5-4-8.1l-9.1-1.5h-28.2c0,0-9.9,1.5-9.9,1.5l-5.3,5.6c-1.2,1.3-2.8,4.5-2,6.6l7.6,19.8c2.7,7-7.9,16.1-7.3,33.9.3,10.3,3.7,19.4,6.7,28.7,2,5.6,1.7,11.8-1.1,17.1,1.3,5.6-.8,9.8-5.2,13-3.4,3.9-7.6,8.2-12.9,9.3l-32.1,6.5-10.9,1.1ZM257.7,322.9c3.7-4.5,3.4-9.7.2-12.9-3.3,3.5-3.9,9.5-.2,12.9Z"/>
</svg>