<?xml version="1.0" encoding="UTF-8"?>
<svg id="Layer_1" xmlns="http://www.w3.org/2000/svg" version="1.1" viewBox="0 0 166 486.2">
  <!-- Generator: Adobe Illustrator 30.6.0, SVG Export Plug-In . SVG Version: 2.1.4 Build 109)  -->
  <path d="M37.3,333.8l-5,11.1c-.5,5.5-.9,9.8-2.5,14.7l-4.7,14.5c-3.3,10.1-7.8,21.8-3,32.5s.9,5.9,1.1,8.1l.7,12.3c.2,2.7,1.7,4.3,3,6.8,2.9,5.4,2,12.6,2,18.8-8.4,2.3-24.5-7-25.1-11.5l-2.8-21.2-.9-12.3c-.3-3.9,3.2-7.9,6.7-10.5v-16.2c0-2-2.9-6-2.9-8.1l.3-25.9c0-3.3,2.2-7.7,3.2-11.2l-4.7-1.7,2.9-22.5.9-25.1c.5-13.7.8-27.3,0-41s-1.6-26.6,3.3-39.1,7.7-11.6,11.3-17.8l-13.3-28.5-.2-7.4c-3.1-1.6-4-3.5-3.8-6.7l.9-18c1-20.5,0-41.6,13.7-58.6,1.9-2.3,7.2-2.2,9.5-1.9l11.3,1.4c3.8.5,10.9-1.8,9.6-7l-2.2-8.5c-5-6-5.4-13.3-4-20.9s.9-11.2,3.2-15.9,3.2-6.5,5.3-8.9c3.1-3.6,9.2-6.8,14-7.7,7.8-1.5,16.9,3.3,20.7,9.7,1.5,2.5,2.3,5.1,5,6.5,6.3,3.4,13.2,5.8,19.2,9.7,11.7,7.7,22.7,15.6,33.7,23.9l21.3,24.7c.8.9,1.7,3.8,1,4.5l-2.9,2.8c-5.6,5.5-12.3,9-19.2,12.9l-17.8,10.1c-7.4,4.2-16.5,6.1-22.6,12.3-3.8,4.2-3.5,11.8-5,16.8l-5.8,19.3-2.3,7.9c-.8,2.6.2,8.2,1.3,10.9,3.4,2.6,6,6.1,6.5,10.6.9,8,4.3,14.9,6.1,22.5l9.6,40.5c3.9,16.3,6.3,32.4,8,49.1l3.3,31.7-9,1.3c-7.2-.8-13.4,1.6-17,8.2-.2,13.9.5,27.6-.4,41.5-1.7,23-10.7,41.4-8.2,61.9l3.3,5.8c2.5,4.4,2.3,8,1.6,13s4.1,8.3,7.1,11.4,4.5,12.2.4,15.1c-6,4.2-22.3-1.7-22.5-9.7s-1.1-8.1-4.2-11c-6.9-6.4-7.4-23.1-1.5-32,.9-6.7.8-15.8.2-23l-.9-10.3-1.1-9.9c-1.2-10.7-2.4-20.6-1.2-31.4s.5-14,.2-21.6c-10.7-4.8-22.8-5.2-34.3-2.3ZM111.4,76.5c9.3,1.1,18,.4,27.9-1.5-2.7-4.2-4.9-8.3-7.8-11.5l-9.5-10.6c-5.1-5.7-10.8-11.4-16.7-16.1l-10-3.4-1.9,7c-.9,3.3-1.8,5.5-3.9,7.5-3.6,3.3-6.6,7.9-9.7,12l-2-1.5c-1.8,4-3.5,10.5-.6,14.7,9.7,5.8,21,2,34.3,3.6Z"/>
</svg>