<?xml version="1.0" encoding="UTF-8"?>
<svg id="Layer_1" xmlns="http://www.w3.org/2000/svg" version="1.1" viewBox="0 0 249.4 469.2">
  <!-- Generator: Adobe Illustrator 30.6.0, SVG Export Plug-In . SVG Version: 2.1.4 Build 109)  -->
  <path d="M146.2,348.8c-8.8,17.2-15.7,34.1-23,51.7-2.2,14.2-3.7,28.1-3.1,42.4,3.5,9,6.5,23.1,1.9,25.8s-4.3.4-6.1-.1c-12.3-4-18.7-15.1-14.6-27.4s2.4-14.2,1.2-21.3.6-10.1,3.1-14.9c4.1-8.1,5.3-17.6,6.4-26.6s3.2-23.1,6.3-34.6,4-6.5,6.5-9.8c1.9-2.6,1.1-9.5.4-12.8l-5.1-25.2c-.4-2.2-.3-5.8-.2-7.9-11-1.9-21.3-5.1-22.3-16.5-2.5-26.9-2.8-61.6,5.8-86.7s11.7-9.5,7.7-31.8c-10.4-1.5-18.3-9.3-16.2-19.8s.6-4.3-1.4-5.5c-.2,18,1.7,45.5-12.1,54.3s-7.7,2.4-11.1,2.6l-44.8,3.4c-5.4.4-11.4,4.2-17.1,1.3-5.8-4.9-10.4-11.9-8.1-19.8l8-1.1-4.5-8.2c8.2,3,13.7,5.8,20,10.4s9.4,4.4,14.2,5.1c10.4-6.1,20.2-11.2,31.1-14.9,1.9-9.4,4.5-18.5,5-28s-1.5-13.8-3-21.5c-4,5.6-6.8,10.6-9.9,16.5,1.6-8.7,4.2-18.5,9.6-24.1-.5-5.7.9-11.2,5.1-15.6l7.3-38.5,6.8-33.1c.8-3.7,3.4-6.5,5.8-9.2C99.8,3.3,103.8-.4,109.9,0l22.7,1.5c9,8.4,13.9,25.9,15.7,38.5,1,7.1-4,16.3-1.7,20.3,3.3,5.6,20.1-7.2,36.4,6.1,2.6,6.5,3,13.8,3.3,20.7l1.5,30.7c.2,4.2,1.7,8.5,3.7,12.3,10.2,19.7,19.8,39,28.6,59.4,1.2,2.7.9,7.6,3.9,9.1,5.3,2.7,12.2-2.1,19,3.8s7.1,7.3,6.4,12.9l-5.3,6.7c-.5.6-2.1,1.7-2.9,1.8s-2.5-1.5-3.1-2.2c2.3-2,4.2-4.4,2.8-7.3-3.8.9-4.9,4.5-9.5,6.1s-3.7-2-3.3-2.6l3.3-1.4c5.6-2.3-6-2-12.7-7.3-.1,15-.2,29.5-3,43.4l-6.8-3c4,23.9,8.3,46.3,9.4,70.2.2,3.7,1.1,5.6,2.3,9,2.3,6.5,2,14.7,1.8,21.9l-1.4,49.1c-.4,13,4.3,26.2,8.3,38.4s9.8,14.1,4.6,21.1-4.8,3.2-6.9,3.3c-21.1,1.4-17.4-23.6-22.1-32l-7.1-12.7c-2.8-5,2.6-7,3.8-10.3,6-16.3-6.1-40.5-7-66.9-.2-5,0-9-2.2-13.5l-17.3-36.7-5.7-15c-2,2.3-3.2,4.2-4.6,7.6-3.1-1.4-6.4-3.3-9.1-5.5-1.3,22.3.3,52.3-9.3,71.1Z"/>
</svg>